<svg height="512pt" viewBox="-9 0 512 512" width="512pt" xmlns="http://www.w3.org/2000/svg"><path d="m353.101562 315.234375c9.070313 11.867187 21.3125 20.925781 35.3125 26.128906 11.449219 3.882813 23.859376 3.882813 35.308594 0 37.871094-12.625 66.914063-65.058593 70.269532-129.5.265624-4.148437.351562-8.386719.351562-12.625.046875-17.261719-1.878906-34.472656-5.738281-51.296875-.980469-3.949218-4.535157-6.71875-8.605469-6.699218h-154.792969zm0 0" fill="#802d40"/><path d="m494.34375 199.238281c0 4.238281-.085938 8.476563-.351562 12.625h-157.484376l-11.300781-70.621093h154.75c4.101563-.074219 7.699219 2.71875 8.648438 6.707031 3.863281 16.824219 5.789062 34.03125 5.738281 51.289062zm0 0" fill="#90bae1"/><path d="m132.414062 121.75v-59.957031c0-4.875-3.953124-8.828125-8.828124-8.828125h-70.621094c-4.875 0-8.828125 3.953125-8.828125 8.828125v59.957031c-.472657 21.949219-10.777344 42.527344-28.070313 56.054688-10.183594 8.375-16.0781248 20.871093-16.066406 34.058593v282.480469c0 9.75 7.90625 17.65625 17.65625 17.65625h141.242188c9.75 0 17.652343-7.90625 17.652343-17.65625v-282.480469c.011719-13.1875-5.882812-25.683593-16.066406-34.058593-17.289063-13.527344-27.59375-34.105469-28.070313-56.054688zm0 0" fill="#527f72"/><path d="m61.792969 0h52.964843c4.875 0 8.828126 3.953125 8.828126 8.828125v44.136719h-70.621094v-44.136719c0-4.875 3.953125-8.828125 8.828125-8.828125zm0 0" fill="#cbb292"/><path d="m176.550781 450.207031c-29.3125 3.1875-58.789062 4.691407-88.273437 4.5-29.488282.191407-58.960938-1.3125-88.277344-4.5v-225.191406c29.316406 3.1875 58.789062 4.691406 88.277344 4.5 29.484375.191406 58.960937-1.3125 88.273437-4.5zm0 0" fill="#9fc9d3"/><path d="m141.242188 339.863281c0-41.441406-23.714844-75.035156-52.964844-75.035156-29.253906 0-52.96875 33.59375-52.96875 75.035156 0 41.4375 23.714844 75.035157 52.96875 75.035157 29.25 0 52.964844-33.597657 52.964844-75.035157zm0 0" fill="#e64c3c"/><path d="m88.277344 379.585938c-5.394532 0-17.65625-15.007813-17.65625-39.722657 0-24.71875 12.261718-39.726562 17.65625-39.726562 5.390625 0 17.652344 15.007812 17.652344 39.726562 0 24.714844-12.261719 39.722657-17.652344 39.722657zm0 0" fill="#802f34"/><path d="m226.199219 141.242188c-4.082031-.019532-7.640625 2.757812-8.617188 6.71875-3.835937 16.824218-5.757812 34.027343-5.71875 51.285156 0 80.101562 39.519531 145.03125 88.273438 145.03125 48.757812 0 88.277343-64.929688 88.277343-145.03125.054688-19.574219-2.433593-39.070313-7.398437-58.003906zm0 0" fill="#df4d60"/><path d="m282.484375 341.363281h35.308594v135.328125h-35.308594zm0 0" fill="#b0d3f0"/><path d="m282.484375 476.691406h35.308594c19.5 0 35.308593 15.808594 35.308593 35.308594h-105.929687c0-19.5 15.808594-35.308594 35.3125-35.308594zm0 0" fill="#90bae1"/><path d="m388.414062 341.363281h35.308594v135.328125h-35.308594zm0 0" fill="#90bae1"/><path d="m388.414062 476.691406h35.308594c19.503906 0 35.3125 15.808594 35.3125 35.308594h-105.933594c0-19.5 15.8125-35.308594 35.3125-35.308594zm0 0" fill="#4482c3"/><path d="m388.414062 199.238281c0 4.238281-.089843 8.476563-.351562 12.625h-175.847656c-.265625-4.148437-.351563-8.386719-.351563-12.625-.042969-17.257812 1.882813-34.464843 5.738281-51.289062.933594-3.964844 4.488282-6.75 8.5625-6.707031h154.835938c4.992188 18.925781 7.484375 38.421874 7.414062 57.996093zm0 0" fill="#b0d3f0"/></svg>